<svg width="10" height="10" viewBox="0 0 10 10" fill="none" xmlns="http://www.w3.org/2000/svg">
<g id="angles-right-solid 2">
<path id="Vector" d="M9.19141 4.55859C9.43555 4.80273 9.43555 5.19922 9.19141 5.44336L6.06641 8.56836C5.82227 8.8125 5.42578 8.8125 5.18164 8.56836C4.9375 8.32422 4.9375 7.92773 5.18164 7.68359L7.86523 5L5.18359 2.31641C4.93945 2.07227 4.93945 1.67578 5.18359 1.43164C5.42773 1.1875 5.82422 1.1875 6.06836 1.43164L9.19336 4.55664L9.19141 4.55859ZM2.31641 1.43359L5.44141 4.55859C5.68555 4.80273 5.68555 5.19922 5.44141 5.44336L2.31641 8.56836C2.07227 8.8125 1.67578 8.8125 1.43164 8.56836C1.1875 8.32422 1.1875 7.92773 1.43164 7.68359L4.11523 5L1.43359 2.31641C1.18945 2.07227 1.18945 1.67578 1.43359 1.43164C1.67773 1.1875 2.07422 1.1875 2.31836 1.43164L2.31641 1.43359Z" fill="white"/>
</g>
</svg>
