<svg width="33" height="32" viewBox="0 0 33 32" fill="none" xmlns="http://www.w3.org/2000/svg">
<path d="M6.23625 25.7648C5.6875 25.1802 4.88875 24.8123 4 24.8123C2.34375 24.8123 1 26.0922 1 27.6697C1 29.2472 2.34375 30.5271 4 30.5271H13.5C14.8812 30.5271 16 29.4615 16 28.146C16 26.8304 14.8812 25.7648 13.5 25.7648C13.4612 25.7648 13.4262 25.7743 13.3875 25.7755" stroke="#1696D2" stroke-linecap="round" stroke-linejoin="round"/>
<path d="M4.90637 24.9445C5.61512 23.4623 7.17887 22.43 9.00012 22.43C11.4851 22.43 13.5001 24.3492 13.5001 26.7161" stroke="#1696D2" stroke-linecap="round" stroke-linejoin="round"/>
<path d="M4 21.0018V15.7632H1V11.9534L16.5 1L32 11.9534V15.7632H29V30.5265H19" stroke="#1696D2" stroke-linecap="round" stroke-linejoin="round"/>
<path d="M6 15.7636H4" stroke="#1696D2" stroke-linecap="round" stroke-linejoin="round"/>
<path d="M28.9999 15.7636H26.9999" stroke="#1696D2" stroke-linecap="round" stroke-linejoin="round"/>
<path d="M11.5002 20.0497V15.7636H21.5002V24.8121H17.5002" stroke="#1696D2" stroke-linecap="round" stroke-linejoin="round"/>
</svg>
