<svg width="32" height="32" viewBox="0 0 32 32" fill="none" xmlns="http://www.w3.org/2000/svg">
<path d="M21.32 19.08C21.32 20.0933 20.9933 20.96 20.34 21.68C19.7 22.4 18.8067 22.8667 17.66 23.08V26.2H15.54V23.2C13.7933 23.0667 12.3667 22.4467 11.26 21.34L12.74 19.74C13.7133 20.6333 14.8333 21.08 16.1 21.08C16.7933 21.08 17.3467 20.92 17.76 20.6C18.1867 20.28 18.4 19.8333 18.4 19.26C18.4 18.9 18.3267 18.6 18.18 18.36C18.0333 18.12 17.78 17.9067 17.42 17.72C17.06 17.5333 16.5333 17.3333 15.84 17.12C14.4 16.6667 13.3667 16.1267 12.74 15.5C12.1267 14.8733 11.82 14.06 11.82 13.06C11.82 12.0733 12.16 11.2467 12.84 10.58C13.52 9.91333 14.42 9.50667 15.54 9.36V6.42H17.66V9.38C18.9 9.56667 19.9933 10.1 20.94 10.98L19.58 12.56C18.7267 11.8 17.7533 11.42 16.66 11.42C16.0733 11.42 15.6 11.5467 15.24 11.8C14.8933 12.04 14.72 12.3933 14.72 12.86C14.72 13.18 14.7933 13.44 14.94 13.64C15.0867 13.84 15.34 14.0333 15.7 14.22C16.0733 14.4067 16.6333 14.6133 17.38 14.84C18.7133 15.2533 19.7 15.7733 20.34 16.4C20.9933 17.0267 21.32 17.92 21.32 19.08Z" fill="#1696D2"/>
<circle cx="16" cy="16" r="15.5" stroke="#1696D2"/>
</svg>
