<svg width="60" height="60" viewBox="0 0 60 60" fill="none" xmlns="http://www.w3.org/2000/svg">
<circle cx="30.458" cy="30.3315" r="29.542" fill="#1696D2"/>
<path d="M47.3383 39.0958C47.0788 39.0958 46.8694 38.8301 46.8694 38.5009V28.9832C46.8694 28.654 47.0788 28.3883 47.3383 28.3883C47.5978 28.3883 47.8072 28.654 47.8072 28.9832V38.5009C47.8072 38.8301 47.5978 39.0958 47.3383 39.0958Z" fill="white"/>
<path d="M48.7449 38.2042H46.8692C46.3503 38.2042 45.9314 38.0049 45.9314 37.758C45.9314 37.5112 46.3503 37.3119 46.8692 37.3119H48.7449C49.2639 37.3119 49.6828 37.5112 49.6828 37.758C49.6828 38.0049 49.2639 38.2042 48.7449 38.2042Z" fill="white"/>
<path d="M30.9242 36.4199C30.8287 36.4199 30.7333 36.4017 30.6424 36.356L10.6939 27.2245C10.453 27.115 10.2939 26.8684 10.2939 26.6036C10.2939 26.3388 10.4485 26.0922 10.6939 25.9827L30.6424 16.8512C30.8242 16.769 31.0287 16.769 31.206 16.8512L51.1589 25.9827C51.3998 26.0922 51.5589 26.3388 51.5589 26.6036C51.5589 26.8684 51.4044 27.115 51.1589 27.2245L31.206 36.356C31.115 36.3971 31.0196 36.4199 30.9242 36.4199ZM12.6165 26.6036L30.9242 34.9817L49.2318 26.6036L30.9242 18.2255L12.6165 26.6036Z" fill="white"/>
<path d="M30.9272 44.4505C19.9909 44.4505 19.6731 40.1765 19.6731 39.6916V30.8537C19.6731 30.4775 19.9688 30.1738 20.3351 30.1738C20.7014 30.1738 20.9971 30.4775 20.9971 30.8537V39.6916C20.9971 39.6916 21.3016 43.0908 30.9272 43.0908C40.5527 43.0908 40.8573 39.7052 40.8573 39.6735V30.8537C40.8573 30.4775 41.1529 30.1738 41.5193 30.1738C41.8856 30.1738 42.1813 30.4775 42.1813 30.8537V39.6916C42.1813 40.1765 41.8635 44.4505 30.9272 44.4505Z" fill="white"/>
<path d="M48.7452 37.3116H46.8695C46.3505 37.3116 45.9316 36.7138 45.9316 35.9732C45.9316 35.2326 46.3505 34.6348 46.8695 34.6348H48.7452C49.2641 34.6348 49.683 35.2326 49.683 35.9732C49.683 36.7138 49.2641 37.3116 48.7452 37.3116Z" fill="white"/>
</svg>
